Coordinates
version=1
nRows=26
nColumns=18
inDegrees=yes

Units are S.I. units (second, meters, Newtons, ...)
If the header above contains a line with 'inDegrees', this indicates whether rotational values are in degrees (yes) or radians (no).

endheader
time	ground_thorax_rot_x	ground_thorax_rot_y	ground_thorax_rot_z	ground_thorax_tx	ground_thorax_ty	ground_thorax_tz	clav_prot	clav_elev	scapula_abduction	scapula_elevation	scapula_upward_rot	scapula_winging	plane_elv	shoulder_elv	axial_rot	elbow_flexion	pro_sup
      6.34000000	      0.44245587	     -4.56606754	     -9.59430662	      0.00000000	      0.00000000	      0.00000000	    -33.64174572	      1.56470809	    -27.47581640	     -2.54801404	     21.69005912	     -0.15006011	    -24.28620503	      5.32169492	     16.31012337	      0.00000000	     34.32000000
      6.35000000	      0.31896947	     -4.53303669	     -9.81396019	      0.00000000	      0.00000000	      0.00000000	    -33.68753535	      1.23183810	    -27.85624718	     -2.64700206	     21.04359872	      0.09447591	    -19.19121926	      5.80961057	     12.87198024	      0.00000000	     34.32000000
      6.36000000	      0.42406712	     -4.62253317	     -9.54193548	      0.00000000	      0.00000000	      0.00000000	    -33.53228726	      1.65179915	    -27.17804353	     -2.52832401	     21.92135737	     -0.19847590	    -27.88142812	      4.77294454	     22.65862935	      0.00000000	     34.32000000
      6.37000000	      0.49006939	     -4.73741181	     -9.61693059	      0.00000000	      0.00000000	      0.00000000	    -33.42638212	      1.69000862	    -27.13061948	     -2.45397390	     21.75758046	     -0.13126984	    -25.01908266	      5.10588328	     19.23151176	      0.00000000	     34.32000000
      6.38000000	      0.46703683	     -4.77333672	     -9.67638015	      0.00000000	      0.00000000	      0.00000000	    -33.41221356	      1.71260440	    -27.12905144	     -2.43179243	     21.73849974	     -0.12716091	    -25.02204916	      5.08733929	     19.23214463	      0.00000000	     34.32000000
      6.39000000	      0.53222953	     -4.92840581	     -9.71012584	      0.00000000	      0.00000000	      0.00000000	    -33.28646199	      1.79863306	    -27.01701540	     -2.33801730	     21.65042546	     -0.08561244	    -22.45771400	      5.27239652	     16.51671351	      0.00000000	     34.32000000
      6.40000000	      0.51615876	     -4.90763840	     -9.70324489	      0.00000000	      0.00000000	      0.00000000	    -33.27958311	      1.78557380	    -26.99163914	     -2.35029442	     21.66456590	     -0.08385279	    -22.46237072	      5.28926054	     16.52340188	      0.00000000	     34.32000000
      6.41000000	      0.48895946	     -5.00790208	     -9.73125249	      0.00000000	      0.00000000	      0.00000000	    -33.12144956	      1.63760204	    -26.63241445	     -2.46407929	     21.74016639	     -0.01643794	    -23.21281841	      5.41747486	     15.74997523	      0.00000000	     34.32000000
      6.42000000	      0.45347561	     -4.94338749	     -9.68575722	      0.00000000	      0.00000000	      0.00000000	    -33.10464663	      1.59531431	    -26.68857770	     -2.45968313	     21.59214779	      0.03945643	    -21.87315800	      5.71096735	     14.71872985	      0.00000000	     34.32000000
      6.43000000	      0.39472924	     -4.93386784	     -9.66331310	      0.00000000	      0.00000000	      0.00000000	    -33.12168423	      1.58606735	    -26.67873312	     -2.47955399	     21.64275197	      0.02261063	    -21.87087351	      5.68996664	     14.73267547	      0.00000000	     34.32000000
      6.44000000	      0.52348130	     -5.09515162	     -9.71334475	      0.00000000	      0.00000000	      0.00000000	    -33.09247983	      1.70585901	    -26.49640930	     -2.45095520	     21.91148437	     -0.07042992	    -21.29884839	      5.52924232	     15.16529074	      0.00000000	     34.32000000
      6.45000000	      0.49599157	     -5.18628570	     -9.78285133	      0.00000000	      0.00000000	      0.00000000	    -33.02331503	      1.63314268	    -26.42274877	     -2.47667385	     21.81463184	     -0.00469225	    -20.13388905	      5.64493424	     14.05999983	      0.00000000	     34.32000000
      6.46000000	      0.50413617	     -5.24024507	     -9.69886102	      0.00000000	      0.00000000	      0.00000000	    -33.00516991	      1.71867650	    -26.17371930	     -2.49846316	     22.19028766	     -0.12058278	    -24.05875798	      5.05430126	     19.80163963	      0.00000000	     34.32000000
      6.47000000	      0.51745879	     -5.23475762	     -9.70993788	      0.00000000	      0.00000000	      0.00000000	    -32.99222298	      1.68620303	    -26.19917650	     -2.50159546	     22.10366230	     -0.08532191	    -23.43243882	      5.24656642	     18.46106009	      0.00000000	     34.32000000
      6.48000000	      0.55073196	     -5.15985175	     -9.77347208	      0.00000000	      0.00000000	      0.00000000	    -33.04807611	      1.63788446	    -26.32214638	     -2.52434336	     22.02838587	     -0.06986102	    -23.30139845	      5.26752236	     18.69332158	      0.00000000	     34.32000000
      6.49000000	      0.53416360	     -5.19235561	     -9.70058511	      0.00000000	      0.00000000	      0.00000000	    -33.06629707	      1.62978087	    -26.34010417	     -2.53454101	     22.04073462	     -0.07692835	    -23.29610480	      5.27396239	     18.70264186	      0.00000000	     34.32000000
      6.50000000	      0.43839717	     -5.09705529	     -9.71611001	      0.00000000	      0.00000000	      0.00000000	    -33.12096547	      1.47101098	    -26.50036325	     -2.61123540	     21.84647997	     -0.00113103	    -22.76147187	      5.48863873	     17.36819487	      0.00000000	     34.32000000
      6.51000000	      0.54965352	     -5.10939702	     -9.73876575	      0.00000000	      0.00000000	      0.00000000	    -33.12411626	      1.44439718	    -26.57134660	     -2.60499324	     21.73306716	      0.03493824	    -19.92666141	      5.73834887	     16.13492238	      0.00000000	     34.32000000
      6.52000000	      0.49885022	     -5.03437759	     -9.70668092	      0.00000000	      0.00000000	      0.00000000	    -33.13284266	      1.41902332	    -26.40041474	     -2.68506667	     21.99718319	     -0.03071088	    -23.07916559	      5.47804602	     17.72157837	      0.00000000	     34.32000000
      6.53000000	      0.52824740	     -4.92200925	     -9.69118201	      0.00000000	      0.00000000	      0.00000000	    -33.23767520	      1.42162945	    -26.59431545	     -2.68336925	     21.96158023	     -0.05440934	    -22.88077490	      5.51930186	     17.96908089	      0.00000000	     34.32000000
      6.54000000	      0.45230762	     -4.97938829	     -9.66533972	      0.00000000	      0.00000000	      0.00000000	    -33.17603968	      1.45783851	    -26.55399141	     -2.63605494	     21.89225029	     -0.02727299	    -22.37955296	      5.49565884	     17.82403053	      0.00000000	     34.32000000
      6.55000000	      0.51041419	     -4.80456348	     -9.66612496	      0.00000000	      0.00000000	      0.00000000	    -33.30603541	      1.49822039	    -26.73632825	     -2.63094879	     21.95516685	     -0.09433441	    -23.19722358	      5.50178126	     18.23853477	      0.00000000	     34.32000000
      6.56000000	      0.49926629	     -4.89154387	     -9.66988461	      0.00000000	      0.00000000	      0.00000000	    -33.19028473	      1.45000822	    -26.56918142	     -2.64442370	     21.89902082	     -0.03186343	    -22.65296721	      5.62413976	     18.12034768	      0.00000000	     34.32000000
      6.57000000	      0.47899793	     -4.85063566	     -9.66526198	      0.00000000	      0.00000000	      0.00000000	    -33.18873966	      1.45755370	    -26.56640707	     -2.63981947	     21.90418192	     -0.03378483	    -22.64880663	      5.63384864	     18.12628403	      0.00000000	     34.32000000
      6.58000000	      0.46744978	     -4.71334718	     -9.67738072	      0.00000000	      0.00000000	      0.00000000	    -33.29154637	      1.43077155	    -26.84898908	     -2.62399220	     21.71385206	     -0.00871095	    -20.90198845	      5.85327326	     15.89513323	      0.00000000	     34.32000000
      6.59000000	      0.52551880	     -4.75471971	     -9.63832140	      0.00000000	      0.00000000	      0.00000000	    -33.22871853	      1.53107787	    -26.86014457	     -2.51864819	     21.59947498	      0.01512697	    -18.75251791	      6.11060789	     13.55714325	      0.00000000	     34.32000000
